<?xml version="1.0" standalone="no"?>
<!DOCTYPE svg PUBLIC "-//W3C//DTD SVG 20010904//EN"
 "http://www.w3.org/TR/2001/REC-SVG-20010904/DTD/svg10.dtd">
<svg version="1.0" xmlns="http://www.w3.org/2000/svg"
 width="700.000000pt" height="700.000000pt" viewBox="0 0 700.000000 700.000000"
 preserveAspectRatio="xMidYMid meet">
<metadata>
Created by potrace 1.11, written by Peter Selinger 2001-2013
</metadata>
<g transform="translate(0.000000,700.000000) scale(0.100000,-0.100000)"
fill="#000000" stroke="none">
<path d="M3325 6990 c-804 -42 -1581 -366 -2187 -914 -428 -387 -784 -945
-966 -1517 -173 -540 -211 -1121 -111 -1674 117 -643 417 -1252 859 -1743 582
-646 1500 -1086 2353 -1127 62 -3 138 -8 170 -10 l57 -5 0 105 c0 124 20 111
-190 119 -863 33 -1745 473 -2317 1156 -546 652 -810 1432 -771 2283 49 1090
647 2087 1593 2656 450 271 997 438 1495 457 210 8 190 -5 190 119 0 94 -2
105 -17 103 -10 0 -81 -4 -158 -8z"/>
<path d="M3192 5943 l-304 -608 61 -243 61 -243 -120 -119 c-66 -66 -122 -120
-124 -120 -2 0 -43 162 -92 360 -48 198 -91 357 -95 353 -3 -5 -140 -411 -304
-903 -164 -492 -300 -900 -302 -907 -3 -8 111 -70 301 -165 l306 -153 0 -122
0 -123 -47 19 c-27 10 -504 201 -1062 425 -558 223 -1016 405 -1017 403 -3 -3
186 -136 466 -329 452 -310 614 -434 784 -598 265 -255 425 -495 505 -755 39
-129 53 -205 60 -335 l6 -105 29 80 c54 152 137 283 246 392 35 35 66 63 69
63 3 0 132 -190 286 -421 153 -231 283 -423 289 -426 5 -4 23 9 40 28 165 179
346 190 503 29 32 -33 61 -60 66 -60 4 0 134 190 288 423 155 232 286 424 291
426 6 2 37 -25 70 -60 112 -119 192 -247 244 -394 l29 -80 7 110 c16 274 89
480 263 740 196 293 431 497 1105 960 315 217 430 298 427 302 -2 1 -475 -186
-1053 -417 -577 -231 -1050 -420 -1051 -420 -2 0 -3 55 -3 123 l0 122 304 152
305 152 -301 903 c-165 497 -304 906 -307 911 -4 4 -47 -155 -96 -354 l-88
-361 -125 125 -125 125 62 246 62 245 -303 605 c-167 334 -305 606 -308 606
-3 0 -142 -273 -308 -607z m380 163 c11 -8 36 -36 55 -63 50 -68 290 -555 315
-637 39 -129 31 -179 -146 -884 -86 -342 -167 -651 -180 -686 -31 -82 -69
-142 -95 -149 -19 -5 -21 -1 -21 39 0 38 -5 49 -43 86 -31 31 -51 65 -71 118
-24 66 -196 713 -247 935 -11 44 -21 87 -24 95 -3 8 -16 67 -30 130 -48 215
-27 310 137 629 134 262 190 341 253 357 19 5 25 13 25 35 0 27 2 28 26 19 14
-6 35 -17 46 -24z m922 -1477 c45 -35 109 -189 226 -543 175 -531 175 -532
-235 -735 -218 -108 -255 -123 -320 -124 -62 -1 -90 22 -105 83 -16 69 -11 97
131 665 126 501 160 608 211 650 36 30 57 31 92 4z m-1889 -104 c48 -51 83
-159 196 -609 89 -351 101 -412 103 -493 1 -84 -1 -93 -23 -117 -50 -53 -129
-43 -302 37 -218 101 -320 172 -361 251 -17 33 -20 53 -16 120 4 69 18 123
101 367 101 303 140 394 190 447 40 42 71 41 112 -3z m2599 -1451 c24 -9 20
-55 -9 -105 -13 -24 -72 -102 -129 -174 -108 -133 -211 -285 -295 -434 -59
-106 -102 -143 -164 -143 -54 0 -86 16 -197 96 -47 34 -125 86 -173 116 -108
67 -167 127 -167 169 0 37 44 90 103 124 87 51 799 327 902 350 31 7 112 8
129 1z m-3098 -90 c113 -32 546 -203 636 -251 109 -57 144 -112 113 -178 -19
-40 -74 -84 -241 -197 -222 -149 -276 -135 -421 107 -40 66 -115 181 -168 255
-133 186 -160 243 -129 274 23 24 108 20 210 -10z"/>
<path d="M3438 5908 c-150 -119 -238 -254 -290 -448 -33 -121 -32 -385 0 -540
41 -189 117 -411 202 -582 49 -99 144 -268 150 -268 3 0 37 56 74 125 374 686
406 1283 86 1619 -64 67 -147 136 -163 136 -3 0 -29 -19 -59 -42z"/>
<path d="M4717 835 c9 -47 20 -51 24 -8 3 31 1 39 -13 39 -13 0 -15 -7 -11
-31z"/>
<path d="M2264 829 c3 -17 7 -41 7 -53 1 -15 3 -13 9 9 13 52 11 75 -6 75 -13
0 -15 -7 -10 -31z"/>
<path d="M3440 631 c0 -14 55 -171 60 -171 3 0 15 33 27 74 13 41 25 80 28 88
4 11 -8 14 -55 13 -33 0 -60 -2 -60 -4z"/>
</g>
</svg>
