<?xml version="1.0" encoding="UTF-8" standalone="no"?>
<svg
   xmlns:dc="http://purl.org/dc/elements/1.1/"
   xmlns:cc="http://creativecommons.org/ns#"
   xmlns:rdf="http://www.w3.org/1999/02/22-rdf-syntax-ns#"
   xmlns:svg="http://www.w3.org/2000/svg"
   xmlns="http://www.w3.org/2000/svg"
   xmlns:sodipodi="http://sodipodi.sourceforge.net/DTD/sodipodi-0.dtd"
   xmlns:inkscape="http://www.inkscape.org/namespaces/inkscape"
   height="32"
   width="32"
   version="1.1"
   viewBox="0 0 32 32.000001"
   id="svg2"
   inkscape:version="0.91 r13725"
   sodipodi:docname="bronzestar.svg">
  <metadata
     id="metadata12">
    <rdf:RDF>
      <cc:Work
         rdf:about="">
        <dc:format>image/svg+xml</dc:format>
        <dc:type
           rdf:resource="http://purl.org/dc/dcmitype/StillImage" />
      </cc:Work>
    </rdf:RDF>
  </metadata>
  <defs
     id="defs10" />
  <sodipodi:namedview
     pagecolor="#ffffff"
     bordercolor="#666666"
     borderopacity="1"
     objecttolerance="10"
     gridtolerance="10"
     guidetolerance="10"
     inkscape:pageopacity="0"
     inkscape:pageshadow="2"
     inkscape:window-width="1536"
     inkscape:window-height="801"
     id="namedview8"
     showgrid="false"
     inkscape:zoom="14.75"
     inkscape:cx="21.936965"
     inkscape:cy="17.640678"
     inkscape:window-x="-8"
     inkscape:window-y="-8"
     inkscape:window-maximized="1"
     inkscape:current-layer="svg2" />
  <g
     transform="translate(0 -1020.4)"
     id="g4">
    <path
       style="color-rendering:auto;color:#000000;shape-rendering:auto;solid-color:#000000;stroke-width:.5;fill-rule:evenodd;mix-blend-mode:normal;image-rendering:auto;isolation:auto;stroke:darkgoldenrod;fill:gold;"
       d="m16 1022.4 4.1145 8.3369 9.2003 1.3368-6.6574 6.4894 1.5716 9.1631l-8.229-4.3-8.229 4.3262 1.5716-9.1631-6.6574-6.4894 9.2003-1.3368z"
       id="path6" />
  </g>
  <path
     style="fill:#d38d5f;fill-opacity:1;stroke:none;stroke-width:1;stroke-miterlimit:4;stroke-dasharray:none;stroke-dashoffset:0;stroke-opacity:0.89940826"
     d="m 8.1517339,26.711243 c 0.059502,-0.258924 1.4598072,-8.467989 1.4598072,-8.557885 0,-0.04601 -1.4196784,-1.465586 -3.1548408,-3.154622 C 4.7215377,13.3097 3.312911,11.91671 3.3264186,11.903202 c 0.013508,-0.01351 1.7001352,-0.267581 3.7480612,-0.564608 4.8678212,-0.706017 4.9745822,-0.72213 5.0012062,-0.754775 0.01251,-0.01534 0.883678,-1.7821237 1.935931,-3.9261915 1.052254,-2.1440678 1.935787,-3.9212186 1.963408,-3.949224 0.02762,-0.028006 0.9296,1.7311804 2.0044,3.9093019 1.896545,3.8434186 1.96043,3.9612966 2.16603,3.9966916 0.116517,0.02006 2.057612,0.301809 4.313544,0.626112 2.255932,0.324302 4.126477,0.611453 4.156767,0.638113 0.03029,0.02666 -1.364674,1.431053 -3.09992,3.120873 -2.527525,2.461358 -3.148816,3.100308 -3.123937,3.212724 0.104519,0.47227 1.457694,8.53503 1.436066,8.556658 -0.01458,0.01458 -1.781406,-0.890016 -3.926286,-2.010207 l -3.899783,-2.03671 -3.726479,1.960365 c -2.049565,1.078201 -3.8238836,2.010735 -3.9429322,2.072297 -0.2145777,0.110963 -0.216143,0.110587 -0.1807609,-0.04338 z"
     id="path4148"
     inkscape:connector-curvature="0" />
  <path
     style="fill:#e9c6af;fill-opacity:1;stroke:none;stroke-width:1;stroke-miterlimit:4;stroke-dasharray:none;stroke-dashoffset:0;stroke-opacity:0.89940826"
     d=""
     id="path4150"
     inkscape:connector-curvature="0" />
  <path
     style="fill:#c87137;fill-opacity:1;stroke:none;stroke-width:1;stroke-miterlimit:4;stroke-dasharray:none;stroke-dashoffset:0;stroke-opacity:0.89940826"
     d="m 7.5098462,27.660722 c 0,-0.0463 0.3508475,-2.131865 0.779661,-4.634585 C 8.7183208,20.523416 9.0685703,18.417509 9.0678394,18.346343 9.067011,18.265631 7.7816921,16.9671 5.6515297,14.894916 3.7732899,13.067797 2.2432336,11.5654 2.2514044,11.556257 c 0.016515,-0.01848 9.2908536,-1.373206 9.4008646,-1.373206 0.05875,0 3.546878,-6.9664547 4.137857,-8.2640882 l 0.197465,-0.4335799 2.104459,4.2640884 c 1.157452,2.3452486 2.148461,4.2981037 2.202243,4.3396787 0.05378,0.04157 0.242502,0.09458 0.41938,0.117796 1.698252,0.222875 8.942471,1.2907 8.97807,1.323401 0.02547,0.02339 -0.783007,0.850018 -1.79661,1.836942 -1.013603,0.986924 -2.553167,2.487947 -3.421254,3.335607 l -1.57834,1.5412 0.81194,4.730227 c 0.446568,2.601625 0.805973,4.733831 0.79868,4.738234 -0.0073,0.0044 -1.923895,-0.992382 -4.259113,-2.215078 l -4.245851,-2.223084 -3.550759,1.86583 c -1.952918,1.026207 -3.8634711,2.032072 -4.2456745,2.235256 -0.4003204,0.212816 -0.6949153,0.333738 -0.6949153,0.285241 z M 11.950524,24.89655 c 1.976271,-1.038515 3.7026,-1.939865 3.836286,-2.002998 l 0.243065,-0.11479 3.915215,2.046689 c 2.153368,1.12568 3.926622,2.035283 3.940564,2.021341 0.01394,-0.01394 -0.308581,-1.970669 -0.716717,-4.348282 -0.688043,-4.00822 -0.734462,-4.334537 -0.637622,-4.482333 0.05744,-0.08767 1.491604,-1.509058 3.187023,-3.158638 1.695419,-1.649579 3.074292,-3.007305 3.064162,-3.017168 -0.01013,-0.0099 -1.970959,-0.299599 -4.3574,-0.643857 -3.887731,-0.560828 -4.352138,-0.640787 -4.465479,-0.768846 -0.06957,-0.07861 -0.982432,-1.8742778 -2.028575,-3.9903795 -1.046142,-2.1161017 -1.919727,-3.8458713 -1.941299,-3.8439325 -0.02157,0.00194 -0.906911,1.7714257 -1.967419,3.9321932 -1.060508,2.1607678 -1.945396,3.9564978 -1.966417,3.9905118 -0.02102,0.03401 -1.990621,0.343309 -4.3768888,0.687323 -2.3862671,0.344014 -4.3619,0.646033 -4.3902954,0.671151 -0.028395,0.02512 1.3673674,1.427093 3.1016949,3.115499 2.3368085,2.274933 3.1533228,3.109792 3.1533228,3.224167 0,0.08489 -0.320339,2.020519 -0.7118644,4.301406 -0.3915254,2.280886 -0.7118644,4.194958 -0.7118644,4.253492 0,0.07345 0.036763,0.09236 0.1186441,0.06104 0.065254,-0.02496 1.7355932,-0.895077 3.7118642,-1.933592 z"
     id="path4154"
     inkscape:connector-curvature="0" />
</svg>
